<svg width="128" height="128" viewBox="0 0 128 128" fill="none" xmlns="http://www.w3.org/2000/svg">
<circle cx="64" cy="64" r="56" fill="#FFFFFF" stroke="#E5E7EB" stroke-width="4"/>
<g transform="translate(32, 32) scale(2)">
  <path d="M22.7 14.3l-1.4-1.4-7.6-7.6C13.3 4.9 12.7 5 12.3 5.3L10.9 6.7l5.7 5.7-1.4 1.4-5.7-5.7-1.4 1.4 5.7 5.7-1.4 1.4-5.7-5.7L6.7 12.3c-.3.4-.3.9 0 1.3l7.6 7.6 1.4 1.4c.4.4 1 .4 1.4 0l5.6-5.6c.4-.4.4-1 0-1.4zM19.8 8.1l-1.4 1.4-2.8-2.8 1.4-1.4c.4-.4 1-.4 1.4 0l1.4 1.4c.4.4.4 1 0 1.4z" fill="#212121"/>
  <path d="M9.8 5.6c-.4.2-.6.7-.4 1.1l4.9 9.8c.2.4.7.6 1.1.4.4-.2.6-.7.4-1.1L10.9 6c-.2-.4-.7-.6-1.1-.4z" fill="#212121"/>
  <path d="M15.8 19.3c-3.7 3.7-9.6 3.7-13.3 0s-3.7-9.6 0-13.3l4.9-4.9c.4-.4 1-.4 1.4 0s.4 1 0 1.4L4 12.4c-2.9 2.9-2.9 7.7 0 10.6 2.9 2.9 7.7 2.9 10.6 0l4.9-4.9c.4-.4 1-.4 1.4 0s.4 1 0 1.4l-4.9 4.8z" fill="#212121"/>
</g>
</svg>
